<svg xmlns="http://www.w3.org/2000/svg" viewBox="0 0 305.001 305.001" width="52" height="52"><path d="M151 56.513c-14.093 9.912-30.066 21.147-38.624 39.734-14.865 32.426 30.418 67.798 32.353 69.288.45.347.988.52 1.525.52a2.5 2.5 0 0 0 2.219-3.652c-.164-.316-16.418-31.888-15.814-54.54.214-7.888 11.254-16.837 22.942-26.312 10.705-8.678 22.84-18.514 29.94-30.02 15.586-25.327-1.737-50.23-1.914-50.48a2.5 2.5 0 0 0-4.482 1.971c.035.164 3.404 16.633-5.97 33.6-3.863 7-12.348 12.98-22.174 19.9zm59.365 11.17a2.5 2.5 0 0 0-2.393-4.334c-2.394.9-58.627 22.585-58.627 48.776 0 18.053 7.712 27.6 13.343 34.556 2.2 2.73 4.116 5.1 4.744 7.104 1.77 5.804-2.422 16.294-4.184 19.846a2.5 2.5 0 0 0 2.239 3.612c.497 0 .996-.148 1.427-.448.967-.673 23.63-16.696 19.565-36-1.514-7.337-5.12-12.7-8.302-17.43-4.93-7.33-8.5-12.624-3.088-22.403 6.33-11.404 34.987-33.06 35.276-33.278zM64 177.66c-.964 2.885-.5 5.75 1.315 8.283 6.096 8.462 27.688 13.123 60.802 13.123a395.12 395.12 0 0 0 14.08-.262c52.943-1.896 72.58-18.4 73.4-19.1a2.5 2.5 0 0 0 .57-3.067c-.55-1.03-1.733-1.546-2.864-1.235-18.645 5.1-53.463 6.898-77.613 6.898-27.023 0-40.785-1.946-44.154-3.383 1.73-2.374 12.392-6.613 25.605-9.212a2.5 2.5 0 0 0-.482-4.953c-7.746.001-46.6.623-50.65 12.898zm177.148-16.987c-10.92 0-21.275 5.472-21.7 5.705a2.5 2.5 0 0 0 1.178 4.704c.232.001 23.293.2 25.382 13.365 1.85 11.367-21.82 29.785-31.097 35.923a2.5 2.5 0 0 0 1.378 4.585c.173 0 .348-.018.522-.056 2.202-.47 53.855-11.852 48.394-41.927-3.332-18.43-14.916-22.3-24.046-22.3zM205.725 216.7a2.5 2.5 0 0 0-1.023-2.506l-12.385-8.675c-.604-.423-1.367-.556-2.076-.368-.13.034-13.08 3.438-31.885 5.526-7.463.837-15.822 1.28-24.175 1.28-18.8 0-31.1-2.2-32.88-3.83-.237-.455-.162-.662-.12-.777.325-.905 2.068-1.98 3.192-2.405a2.5 2.5 0 0 0-1.454-4.775c-12.424 2.998-18.5 7.2-18.057 12.46.785 9.343 22.428 14.14 40.725 15.408 2.63.18 5.477.272 8.456.272 30.43 0 69.434-9.546 69.824-9.643a2.5 2.5 0 0 0 1.859-1.968zm-93.375 20.045a2.5 2.5 0 0 0 1.021-2.838c-.332-1.068-1.33-1.77-2.453-1.755-1.665.044-16.292.704-17.316 10.017-.3 2.783.487 5.325 2.37 7.556 5.252 6.224 19.428 9.923 43.332 11.3a143.76 143.76 0 0 0 8.539.254c30.4 0 50.857-9.515 51.714-9.92a2.5 2.5 0 0 0 .235-4.394L184.14 237.4c-.543-.33-1.193-.44-1.813-.314-.1.02-10.037 2.082-25.035 4.12-2.838.385-6.392.58-10.562.58-14.982 0-31.646-2.448-34.842-4.05-.046-.3.013-.68.462-1zm21.33 53.273c69.6-.06 106.97-12.438 114.168-20.228 2.548-2.757 2.823-5.366 2.606-7.07-.535-4.194-4.354-6.76-4.788-7.04-1.045-.672-2.447-.496-3.262.444s-.832 2.314-.016 3.253c.44.565.693 1.5-.6 2.795-2.877 2.687-31.897 10.844-80.215 13.294-6.62.345-13.56.52-20.633.52-43.262 0-74.923-5.925-79.08-9.38 1.603-2.3 12.8-5.98 24.7-8.058a2.5 2.5 0 0 0-.764-4.941c-.336.045-1.475.115-2.796.195-19.65 1.2-42.36 3.875-43.545 14-.36 3.086.557 5.886 2.726 8.324 5.307 5.963 20.562 13.9 91.475 13.9zm127.842-18.033a2.5 2.5 0 0 0-2.881.567c-.103.1-10.568 11.054-42.035 17.48-12.047 2.414-34.66 3.638-67.2 3.638-32.612 0-63.643-1.283-63.953-1.296-1.296-.063-2.405.88-2.58 2.155a2.5 2.5 0 0 0 1.897 2.775c.323.077 32.844 7.696 77.3 7.696 21.327 0 42.08-1.733 61.684-5.15 36.553-6.408 39.112-24.533 39.203-25.3a2.5 2.5 0 0 0-1.433-2.563z"/></svg>