<svg xmlns="http://www.w3.org/2000/svg" viewBox="0 0 505.145 505.145" fill="#010002" width="52" height="52"><path d="M68.54 164.715h-1.294c-16.588 0-30.113 13.568-30.113 30.113v131.107c0 16.6 13.525 30.134 30.113 30.134h1.316c16.588 0 30.113-13.568 30.113-30.134V194.827c-.022-16.544-13.568-30.112-30.135-30.112zm44.545 211.825c0 15.23 12.446 27.632 27.675 27.632h29.574v70.817c0 16.63 13.568 30.156 30.113 30.156h1.294c16.6 0 30.156-13.546 30.156-30.156v-70.817h41.33v70.817c0 16.63 13.6 30.156 30.156 30.156h1.273c16.6 0 30.134-13.546 30.134-30.156v-70.817h29.595c15.207 0 27.654-12.403 27.654-27.632V169.525H113.085V376.54zM322.04 43.983l23.5-36.26A5 5 0 0 0 344.063.82c-2.286-1.5-5.414-.884-6.903 1.467L312.8 39.8c-18.27-7.485-38.676-11.7-60.226-11.7-21.57 0-41.934 4.206-60.247 11.7l-24.3-37.512c-1.5-2.352-4.65-2.988-6.957-1.468a4.99 4.99 0 0 0-1.467 6.903l23.512 36.26c-42.387 20.773-70.968 59.924-70.968 104.834 0 2.76.173 5.48.4 8.175H392.62c.237-2.696.388-5.414.388-8.175.001-44.9-28.602-84.06-70.967-104.834zM187.655 108.9c-7.442 0-13.482-5.997-13.482-13.46S180.213 82 187.655 82c7.485 0 13.482 5.975 13.482 13.44s-6.04 13.46-13.482 13.46zm129.835 0c-7.442 0-13.482-5.997-13.482-13.46S310.048 82 317.5 82c7.463 0 13.46 5.975 13.46 13.44a13.42 13.42 0 0 1-13.46 13.46zm120.386 55.805h-1.25c-16.588 0-30.156 13.568-30.156 30.113v131.107c0 16.6 13.6 30.134 30.156 30.134h1.273c16.6 0 30.113-13.568 30.113-30.134V194.827c0-16.544-13.547-30.112-30.135-30.112z"/></svg>