<svg id="Capa_1" enable-background="new 0 0 512 512" height="52" viewBox="0 0 512 512" width="52" xmlns="http://www.w3.org/2000/svg"><g><path d="m497 272h-136v-15c0-8.284-6.716-15-15-15h-75v-65.729l111.708-55.854c5.082-2.542 8.292-7.735 8.292-13.417s-3.21-10.875-8.292-13.417l-111.708-55.854v-22.729c0-8.284-6.716-15-15-15s-15 6.716-15 15v22.729l-108.541 54.271h-117.459c-8.284 0-15 6.716-15 15v180c0 8.284 6.716 15 15 15h136v15c0 8.284 6.716 15 15 15h180c8.284 0 15-6.716 15-15v-15h121v60h-226c-8.284 0-15 6.716-15 15v47.58c-17.459 6.192-30 22.865-30 42.42 0 24.813 20.187 45 45 45s45-20.187 45-45c0-19.555-12.541-36.228-30-42.42v-32.58h226c8.284 0 15-6.716 15-15v-90c0-8.284-6.716-15-15-15zm-467 0v-150h102.459l108.541 54.271v65.729h-75c-8.284 0-15 6.716-15 15v15z"/></g></svg>